{"title":"Robin Hood (1973) DVDr (NL) Nlt Release By Zero Yuy","uid":4871207,"size":734407687,"categoryP":"video","categoryS":"movies","magnet":"?xt=urn:btih:e5c38363c8568312c041f4f198ef2ecbb498d140&amp;dn=Robin+Hood+%281973%29+DVDr+%28NL%29+Nlt+Release+By+Zero+Yuy&amp;tr=udp%3A%2F%2Ftracker.openbittorrent.com%3A80&amp;tr=udp%3A%2F%2Fopen.demonii.com%3A1337&amp;tr=udp%3A%2F%2Ftracker.coppersurfer.tk%3A6969&amp;tr=udp%3A%2F%2Fexodus.desync.com%3A6969","seeders":3,"leechers":0,"uploader":"zeroyuy","files":-1,"time":1240851136,"description":" &lt;a href=&quot;http://www.moviemeter.nl/film/1594&quot; rel=&quot;nofollow&quot; target=&quot;_NEW&quot;&gt;http://www.moviemeter.nl/film/1594&lt;/a&gt;\n\nVerenigde Staten\nAnimatie / Avontuur\n83 minuten\n\ngeregisseerd door Wolfgang Reitherman\nmet de stemmen van Brian Bedford, Peter Ustinov en Phil Harris\n\nDe film vertelt de legende van Robin Hood met dieren als personages. Robin Hood is een outlaw die een bende start in Sherwood Forest. Hij wil het onrecht van de plaatselijk Sheriff bestrijden, die de bevolking grote bedragen belasting laat betalen.\n\nVideo File Info:\n\nGeneral\nFormat : AVI\nFormat/Info : Audio Video Interleave\nFile size : 700 MiB\nDuration : 1h 19mn\nOverall bit rate : 1 229 Kbps\nWriting application : VirtualDubMod 1.5.4.1 (build 2178/release)\nWriting library : VirtualDubMod build 2178/release\n\nVideo\nFormat : MPEG-4 Visual\nFormat profile : Streaming Video@L1\nFormat settings, BVOP : Yes\nFormat settings, QPel : No\nFormat settings, GMC : No warppoints\nFormat settings, Matrix : Custom\nCodec ID : XVID\nCodec ID/Hint : XviD\nDuration : 1h 19mn\nBit rate : 838 Kbps\nWidth : 320 pixels\nHeight : 256 pixels\nDisplay aspect ratio : 5/4\nFrame rate : 25.000 fps\nResolution : 24 bits\nColorimetry : 4:2:0\nScan type : Progressive\nBits/(Pixel*Frame) : 0.409\nStream size : 478 MiB (68%)\nWriting library : XviD 1.2.1 (UTC 2008-12-04)\n\nAudio\nFormat : AC-3\nFormat/Info : Audio Coding 3\nCodec ID : 2000\nDuration : 1h 19mn\nBit rate mode : Constant\nBit rate : 384 Kbps\nChannel(s) : 6 channels\nChannel positions : Front: L C R, Surround: L R, LFE\nSampling rate : 48.0 KHz\nStream size : 219 MiB (31%)\nAlignment : Split accross interleaves\nInterleave, duration : 96 ms (2.40 video frames)\nInterleave, preload duration : 96 ms\nLanguage : Nederlands\n\nBrought to you by Nlt Release @\n &lt;a href=&quot;\nhttp://nlt.ons-forum.nl&quot; rel=&quot;nofollow&quot; target=&quot;_NEW&quot;&gt;\nhttp://nlt.ons-forum.nl&lt;/a&gt;","torrent":{"xt":"urn:btih:e5c38363c8568312c041f4f198ef2ecbb498d140","amp;dn":"Robin+Hood+%281973%29+DVDr+%28NL%29+Nlt+Release+By+Zero+Yuy","amp;tr":["udp%3A%2F%2Ftracker.openbittorrent.com%3A80","udp%3A%2F%2Fopen.demonii.com%3A1337","udp%3A%2F%2Ftracker.coppersurfer.tk%3A6969","udp%3A%2F%2Fexodus.desync.com%3A6969"],"infoHash":"e5c38363c8568312c041f4f198ef2ecbb498d140","infoHashBuffer":{"type":"Buffer","data":[229,195,131,99,200,86,131,18,192,65,244,241,152,239,46,203,180,152,209,64]},"announce":[],"urlList":[]}}